<?xml version="1.0" standalone="no"?>
<!DOCTYPE svg PUBLIC "-//W3C//DTD SVG 20010904//EN"
 "http://www.w3.org/TR/2001/REC-SVG-20010904/DTD/svg10.dtd">
<svg version="1.0" xmlns="http://www.w3.org/2000/svg"
 width="70.000000pt" height="70.000000pt" viewBox="0 0 70.000000 70.000000"
 preserveAspectRatio="xMidYMid meet">
<metadata>
Created by potrace 1.11, written by Peter Selinger 2001-2013
</metadata>
<g transform="translate(0.000000,70.000000) scale(0.100000,-0.100000)"
fill="#000000" stroke="none">
<path d="M0 350 l0 -350 350 0 350 0 0 350 0 350 -350 0 -350 0 0 -350z m242
105 c-31 -14 -33 -17 -30 -57 3 -40 6 -45 53 -69 39 -20 50 -31 50 -50 0 -15
-6 -24 -18 -25 -12 -1 -13 -1 -2 3 26 8 17 40 -16 54 -51 21 -89 58 -89 87 0
32 36 72 64 72 16 -1 13 -4 -12 -15z m168 -115 c0 -80 -4 -130 -10 -130 -6 0
-10 50 -10 130 0 80 4 130 10 130 6 0 10 -50 10 -130z m-77 83 c-7 -2 -19 -2
-25 0 -7 3 -2 5 12 5 14 0 19 -2 13 -5z m-128 -183 c-4 -12 -9 -19 -12 -17 -3
3 -2 15 2 27 4 12 9 19 12 17 3 -3 2 -15 -2 -27z m38 -27 c-7 -2 -19 -2 -25 0
-7 3 -2 5 12 5 14 0 19 -2 13 -5z"/>
</g>
</svg>
